<svg version="1.1" viewBox="45.04504504504504 212.814 904.2792792792793 135.12" xmlns:xlink="http://www.w3.org/1999/xlink" xmlns="http://www.w3.org/2000/svg" style="max-height: 500px" width="904.2792792792793" height="135.12">
<g id="surface1">
<path d="M 812.75 245.761719 C 813.175781 245.757812 813.601562 245.757812 814.027344 245.757812 C 815.195312 245.757812 816.363281 245.757812 817.53125 245.761719 C 818.792969 245.761719 820.054688 245.761719 821.3125 245.761719 C 823.496094 245.761719 825.679688 245.761719 827.863281 245.761719 C 831.019531 245.765625 834.175781 245.765625 837.335938 245.765625 C 842.457031 245.765625 847.578125 245.769531 852.699219 245.773438 C 857.675781 245.773438 862.648438 245.777344 867.625 245.777344 C 867.929688 245.777344 868.238281 245.777344 868.554688 245.777344 C 870.09375 245.777344 871.632812 245.777344 873.167969 245.777344 C 885.933594 245.78125 898.695312 245.785156 911.457031 245.792969 C 911.457031 249.402344 911.457031 253.015625 911.457031 256.738281 C 910.191406 256.742188 908.925781 256.742188 907.625 256.746094 C 896.015625 256.765625 884.410156 256.785156 872.800781 256.8125 C 871.28125 256.816406 869.757812 256.816406 868.238281 256.820312 C 867.933594 256.820312 867.632812 256.824219 867.320312 256.824219 C 862.417969 256.832031 857.511719 256.84375 852.609375 256.851562 C 847.578125 256.859375 842.546875 256.867188 837.511719 256.878906 C 834.410156 256.886719 831.304688 256.894531 828.199219 256.898438 C 826.070312 256.898438 823.941406 256.902344 821.8125 256.910156 C 820.582031 256.914062 819.355469 256.917969 818.125 256.917969 C 817 256.917969 815.875 256.921875 814.75 256.925781 C 814.34375 256.925781 813.9375 256.925781 813.53125 256.925781 C 809.890625 256.921875 806.578125 256.964844 803.710938 259.441406 C 802.046875 261.386719 801.015625 263.230469 801.042969 265.859375 C 801.402344 268.527344 802.410156 270.566406 804.445312 272.328125 C 806.925781 274.082031 809.738281 274.355469 812.695312 274.332031 C 813.042969 274.332031 813.394531 274.332031 813.742188 274.332031 C 814.6875 274.335938 815.632812 274.332031 816.578125 274.328125 C 817.605469 274.324219 818.628906 274.328125 819.652344 274.332031 C 821.425781 274.332031 823.199219 274.332031 824.972656 274.328125 C 827.539062 274.324219 830.105469 274.324219 832.671875 274.328125 C 836.84375 274.335938 841.019531 274.335938 845.191406 274.335938 C 845.4375 274.335938 845.6875 274.335938 845.945312 274.335938 C 847.96875 274.332031 849.988281 274.332031 852.011719 274.332031 C 853.777344 274.332031 855.546875 274.332031 857.3125 274.328125 C 857.683594 274.328125 857.683594 274.328125 858.066406 274.328125 C 862.222656 274.328125 866.378906 274.332031 870.535156 274.335938 C 873.09375 274.339844 875.652344 274.339844 878.214844 274.335938 C 879.96875 274.332031 881.722656 274.332031 883.476562 274.335938 C 884.488281 274.335938 885.5 274.335938 886.511719 274.332031 C 895.761719 274.292969 895.761719 274.292969 899.789062 276.449219 C 899.957031 276.539062 900.128906 276.628906 900.304688 276.71875 C 905.210938 279.367188 908.984375 283.546875 910.746094 288.875 C 912.128906 293.933594 911.53125 299.019531 909.113281 303.65625 C 908.566406 304.578125 907.964844 305.425781 907.292969 306.261719 C 907.03125 306.585938 907.03125 306.585938 906.765625 306.917969 C 903.441406 310.828125 898.625 313.554688 893.484375 314.140625 C 892.183594 314.230469 890.878906 314.214844 889.578125 314.207031 C 889.140625 314.207031 888.707031 314.207031 888.273438 314.210938 C 887.09375 314.210938 885.910156 314.207031 884.726562 314.203125 C 883.449219 314.199219 882.171875 314.199219 880.894531 314.199219 C 878.679688 314.199219 876.46875 314.195312 874.257812 314.191406 C 871.058594 314.183594 867.863281 314.179688 864.664062 314.179688 C 859.476562 314.175781 854.289062 314.167969 849.101562 314.160156 C 844.0625 314.148438 839.023438 314.144531 833.984375 314.136719 C 833.675781 314.136719 833.363281 314.136719 833.042969 314.136719 C 831.484375 314.136719 829.921875 314.136719 828.363281 314.132812 C 815.4375 314.121094 802.511719 314.105469 789.582031 314.082031 C 789.582031 310.554688 789.582031 307.027344 789.582031 303.394531 C 791.472656 303.390625 791.472656 303.390625 793.398438 303.386719 C 804.949219 303.367188 816.503906 303.347656 828.054688 303.320312 C 829.566406 303.316406 831.082031 303.316406 832.59375 303.3125 C 832.898438 303.3125 833.199219 303.308594 833.507812 303.308594 C 838.390625 303.300781 843.269531 303.289062 848.148438 303.28125 C 853.15625 303.273438 858.164062 303.265625 863.171875 303.253906 C 866.261719 303.246094 869.351562 303.238281 872.441406 303.234375 C 874.558594 303.234375 876.679688 303.230469 878.796875 303.222656 C 880.019531 303.21875 881.242188 303.214844 882.464844 303.214844 C 883.585938 303.214844 884.707031 303.214844 885.824219 303.207031 C 886.230469 303.207031 886.632812 303.207031 887.039062 303.207031 C 890.695312 303.210938 893.949219 302.980469 896.957031 300.707031 C 898.632812 299.03125 899.53125 297.039062 899.746094 294.675781 C 899.722656 292.089844 898.695312 289.960938 896.980469 288.082031 C 894.335938 285.578125 890.898438 285.632812 887.476562 285.636719 C 886.964844 285.636719 886.964844 285.636719 886.441406 285.632812 C 885.695312 285.632812 884.949219 285.632812 884.203125 285.632812 C 882.984375 285.632812 881.769531 285.632812 880.554688 285.628906 C 878.785156 285.628906 877.019531 285.628906 875.253906 285.625 C 872.460938 285.625 869.667969 285.621094 866.875 285.617188 C 865.917969 285.613281 864.960938 285.613281 864.003906 285.609375 C 863.644531 285.609375 863.644531 285.609375 863.277344 285.609375 C 860.558594 285.605469 857.835938 285.601562 855.117188 285.597656 C 854.867188 285.597656 854.621094 285.597656 854.363281 285.59375 C 850.335938 285.589844 846.3125 285.585938 842.289062 285.585938 C 838.148438 285.582031 834.011719 285.578125 829.875 285.566406 C 827.324219 285.5625 824.773438 285.558594 822.226562 285.5625 C 820.476562 285.5625 818.726562 285.558594 816.980469 285.550781 C 815.972656 285.550781 814.964844 285.546875 813.957031 285.550781 C 813.03125 285.554688 812.109375 285.550781 811.183594 285.546875 C 810.695312 285.542969 810.207031 285.546875 809.71875 285.550781 C 806.667969 285.519531 803.683594 284.835938 800.976562 283.390625 C 800.804688 283.300781 800.632812 283.210938 800.453125 283.117188 C 795.367188 280.40625 791.816406 276.324219 790.105469 270.8125 C 790.039062 270.609375 789.976562 270.40625 789.910156 270.195312 C 788.640625 265.15625 789.824219 259.808594 792.398438 255.40625 C 795.40625 250.625 800.292969 247.683594 805.65625 246.230469 C 808.015625 245.734375 810.347656 245.753906 812.75 245.761719 Z M 812.75 245.761719" style="stroke:none;fill-rule:nonzero;fill:rgb(100%,100%,100%);fill-opacity:1;"/>
<path d="M 211.980469 246.050781 C 225.246094 246.027344 238.511719 246.007812 251.777344 246 C 253.34375 245.996094 254.910156 245.996094 256.476562 245.996094 C 256.789062 245.996094 257.101562 245.992188 257.421875 245.992188 C 262.46875 245.988281 267.519531 245.980469 272.566406 245.972656 C 277.746094 245.960938 282.929688 245.957031 288.109375 245.953125 C 291.304688 245.953125 294.5 245.949219 297.699219 245.9375 C 299.890625 245.933594 302.082031 245.933594 304.277344 245.933594 C 305.542969 245.933594 306.804688 245.933594 308.070312 245.925781 C 309.230469 245.921875 310.390625 245.921875 311.550781 245.925781 C 311.964844 245.925781 312.382812 245.925781 312.800781 245.921875 C 316.351562 245.894531 319.835938 246.363281 323.015625 248.070312 C 323.1875 248.160156 323.355469 248.25 323.535156 248.34375 C 325.035156 249.148438 326.34375 250.113281 327.605469 251.265625 C 327.761719 251.398438 327.921875 251.535156 328.085938 251.671875 C 331.769531 255.019531 333.835938 260.320312 334.113281 265.195312 C 334.113281 270.976562 332.136719 275.785156 328.125 279.9375 C 323.871094 283.980469 318.9375 285.242188 313.28125 285.929688 C 313.578125 286.246094 313.578125 286.246094 313.882812 286.570312 C 315.371094 288.167969 316.808594 289.785156 318.175781 291.488281 C 318.777344 292.222656 319.410156 292.921875 320.050781 293.621094 C 321.117188 294.78125 322.117188 295.976562 323.105469 297.203125 C 323.921875 298.191406 324.792969 299.128906 325.660156 300.070312 C 326.28125 300.765625 326.875 301.476562 327.457031 302.207031 C 328.296875 303.246094 329.167969 304.242188 330.078125 305.21875 C 331.195312 306.417969 332.238281 307.660156 333.265625 308.9375 C 334.085938 309.933594 334.960938 310.871094 335.84375 311.8125 C 336.316406 312.355469 336.734375 312.886719 337.148438 313.472656 C 337.261719 313.636719 337.378906 313.800781 337.496094 313.96875 C 337.585938 314.089844 337.671875 314.214844 337.761719 314.339844 C 335.847656 314.421875 333.933594 314.476562 332.019531 314.511719 C 331.371094 314.527344 330.722656 314.550781 330.070312 314.578125 C 324.371094 314.808594 324.371094 314.808594 322.917969 313.679688 C 322.175781 312.941406 321.640625 312.105469 321.09375 311.214844 C 320.699219 310.761719 320.300781 310.3125 319.890625 309.878906 C 319.320312 309.246094 318.753906 308.609375 318.183594 307.976562 C 317.121094 306.789062 316.050781 305.609375 314.972656 304.4375 C 313.515625 302.847656 312.074219 301.242188 310.632812 299.636719 C 309.570312 298.449219 308.5 297.269531 307.421875 296.097656 C 305.960938 294.507812 304.519531 292.902344 303.082031 291.292969 C 301.972656 290.058594 300.859375 288.832031 299.738281 287.609375 C 299.613281 287.472656 299.488281 287.335938 299.359375 287.195312 C 298.652344 286.277344 298.652344 286.277344 297.664062 285.898438 C 297.4375 285.894531 297.210938 285.894531 296.976562 285.894531 C 296.71875 285.894531 296.457031 285.890625 296.1875 285.890625 C 295.898438 285.890625 295.605469 285.890625 295.308594 285.890625 C 295.003906 285.886719 294.699219 285.886719 294.382812 285.886719 C 293.53125 285.882812 292.679688 285.878906 291.828125 285.878906 C 290.910156 285.875 289.996094 285.875 289.078125 285.871094 C 287.488281 285.863281 285.898438 285.859375 284.308594 285.855469 C 282.007812 285.847656 279.710938 285.84375 277.414062 285.835938 C 273.683594 285.820312 269.953125 285.808594 266.226562 285.800781 C 262.601562 285.789062 258.980469 285.777344 255.355469 285.765625 C 255.019531 285.765625 255.019531 285.765625 254.679688 285.765625 C 253.558594 285.761719 252.441406 285.757812 251.320312 285.753906 C 242.027344 285.726562 232.730469 285.695312 223.4375 285.671875 C 223.4375 295.132812 223.4375 304.59375 223.4375 314.339844 C 219.742188 314.339844 216.046875 314.339844 212.238281 314.339844 C 212.238281 301.355469 212.238281 288.367188 212.238281 274.984375 C 215.316406 274.980469 218.398438 274.976562 221.570312 274.972656 C 231.417969 274.960938 241.269531 274.941406 251.121094 274.925781 C 252.652344 274.921875 254.179688 274.917969 255.710938 274.914062 C 256.015625 274.914062 256.320312 274.914062 256.632812 274.914062 C 261.566406 274.90625 266.5 274.898438 271.429688 274.890625 C 276.492188 274.886719 281.554688 274.878906 286.613281 274.867188 C 289.738281 274.859375 292.859375 274.855469 295.984375 274.855469 C 298.125 274.851562 300.265625 274.847656 302.40625 274.839844 C 303.644531 274.839844 304.878906 274.835938 306.113281 274.835938 C 307.246094 274.835938 308.378906 274.835938 309.507812 274.828125 C 309.917969 274.828125 310.328125 274.828125 310.734375 274.828125 C 314.296875 274.839844 317.316406 274.347656 320.0625 271.902344 C 321.738281 270.132812 322.445312 268.292969 322.527344 265.859375 C 322.4375 263.304688 321.652344 261.480469 319.902344 259.617188 C 318.105469 258.101562 315.984375 257.230469 313.652344 257.222656 C 313.476562 257.222656 313.304688 257.222656 313.121094 257.222656 C 312.53125 257.21875 311.9375 257.21875 311.347656 257.21875 C 310.917969 257.21875 310.492188 257.214844 310.0625 257.214844 C 308.886719 257.210938 307.710938 257.210938 306.535156 257.207031 C 305.265625 257.207031 303.996094 257.203125 302.730469 257.199219 C 300.53125 257.191406 298.332031 257.1875 296.136719 257.183594 C 292.957031 257.179688 289.78125 257.171875 286.601562 257.164062 C 281.445312 257.152344 276.289062 257.140625 271.132812 257.128906 C 266.125 257.117188 261.117188 257.109375 256.105469 257.097656 C 255.644531 257.09375 255.644531 257.09375 255.171875 257.09375 C 253.625 257.089844 252.074219 257.085938 250.527344 257.082031 C 237.679688 257.054688 224.828125 257.027344 211.980469 257 C 211.980469 253.386719 211.980469 249.773438 211.980469 246.050781 Z M 211.980469 246.050781" style="stroke:none;fill-rule:nonzero;fill:rgb(100%,100%,100%);fill-opacity:1;"/>
<path d="M 516.40625 245.792969 C 517.402344 246.390625 518.085938 246.875 518.914062 247.648438 C 519.808594 248.46875 520.71875 249.261719 521.664062 250.027344 C 523.339844 251.386719 524.960938 252.804688 526.589844 254.222656 C 528.65625 256.023438 530.746094 257.796875 532.839844 259.570312 C 533.871094 260.441406 534.898438 261.316406 535.921875 262.195312 C 536.070312 262.324219 536.222656 262.453125 536.378906 262.589844 C 537.152344 263.253906 537.925781 263.917969 538.699219 264.585938 C 540.089844 265.78125 541.480469 266.972656 542.902344 268.125 C 544.042969 269.050781 545.132812 270.023438 546.222656 271.011719 C 546.875 271.597656 547.546875 272.152344 548.226562 272.703125 C 549.902344 274.0625 551.523438 275.480469 553.152344 276.898438 C 555.21875 278.699219 557.308594 280.476562 559.402344 282.246094 C 560.433594 283.117188 561.460938 283.992188 562.484375 284.871094 C 562.632812 285 562.785156 285.132812 562.941406 285.265625 C 563.714844 285.929688 564.488281 286.597656 565.261719 287.261719 C 566.652344 288.457031 568.042969 289.648438 569.464844 290.800781 C 570.601562 291.726562 571.6875 292.691406 572.769531 293.679688 C 573.726562 294.527344 574.71875 295.332031 575.714844 296.136719 C 576.300781 296.617188 576.300781 296.617188 576.824219 297.140625 C 577.804688 297.0625 578.382812 296.519531 579.117188 295.902344 C 579.371094 295.6875 579.621094 295.476562 579.882812 295.257812 C 581.144531 294.179688 582.402344 293.085938 583.65625 291.996094 C 584.960938 290.859375 586.28125 289.742188 587.605469 288.625 C 588.308594 288.035156 589.011719 287.4375 589.714844 286.84375 C 590.554688 286.128906 591.398438 285.414062 592.242188 284.703125 C 592.523438 284.464844 592.804688 284.230469 593.082031 283.992188 C 593.222656 283.875 593.359375 283.757812 593.503906 283.636719 C 594.398438 282.878906 595.289062 282.113281 596.179688 281.347656 C 597.394531 280.304688 598.609375 279.265625 599.851562 278.257812 C 601.183594 277.179688 602.472656 276.058594 603.765625 274.929688 C 604.933594 273.914062 606.121094 272.929688 607.324219 271.953125 C 608.238281 271.199219 609.132812 270.421875 610.027344 269.640625 C 611.140625 268.667969 612.261719 267.707031 613.410156 266.773438 C 614.722656 265.710938 615.996094 264.609375 617.269531 263.5 C 618.742188 262.21875 620.226562 260.953125 621.71875 259.695312 C 622.425781 259.101562 623.125 258.507812 623.828125 257.910156 C 624.671875 257.195312 625.515625 256.484375 626.359375 255.769531 C 626.636719 255.535156 626.917969 255.296875 627.195312 255.058594 C 627.335938 254.941406 627.472656 254.824219 627.617188 254.707031 C 628.511719 253.945312 629.40625 253.183594 630.296875 252.414062 C 631.753906 251.160156 633.222656 249.917969 634.71875 248.707031 C 635.222656 248.296875 635.722656 247.886719 636.222656 247.472656 C 636.613281 247.148438 636.613281 247.148438 637.011719 246.816406 C 637.25 246.621094 637.484375 246.425781 637.730469 246.222656 C 638.28125 245.792969 638.28125 245.792969 638.542969 245.792969 C 638.542969 268.414062 638.542969 291.035156 638.542969 314.339844 C 634.847656 314.339844 631.152344 314.339844 627.34375 314.339844 C 627.257812 299.804688 627.171875 285.269531 627.082031 270.292969 C 626.136719 271.152344 625.191406 272.011719 624.21875 272.898438 C 623.519531 273.472656 622.824219 274.050781 622.117188 274.617188 C 621.261719 275.320312 620.417969 276.035156 619.578125 276.757812 C 619.425781 276.890625 619.273438 277.023438 619.117188 277.15625 C 618.648438 277.5625 618.179688 277.96875 617.707031 278.371094 C 614.257812 281.351562 614.257812 281.351562 612.648438 282.65625 C 611.332031 283.726562 610.050781 284.832031 608.773438 285.945312 C 607.300781 287.230469 605.8125 288.492188 604.320312 289.75 C 603.617188 290.34375 602.914062 290.941406 602.214844 291.535156 C 601.371094 292.25 600.527344 292.964844 599.683594 293.675781 C 599.402344 293.914062 599.125 294.148438 598.84375 294.386719 C 598.707031 294.503906 598.566406 294.621094 598.425781 294.742188 C 597.527344 295.5 596.636719 296.265625 595.746094 297.03125 C 594.535156 298.074219 593.316406 299.113281 592.074219 300.121094 C 590.757812 301.1875 589.480469 302.296875 588.199219 303.410156 C 586.730469 304.691406 585.242188 305.953125 583.753906 307.210938 C 583.316406 307.578125 582.886719 307.945312 582.453125 308.316406 C 581.882812 308.804688 581.308594 309.289062 580.734375 309.769531 C 580.238281 310.1875 579.746094 310.609375 579.261719 311.035156 C 579.058594 311.207031 578.855469 311.378906 578.644531 311.554688 C 578.386719 311.78125 578.386719 311.78125 578.125 312.007812 C 577.605469 312.257812 577.605469 312.257812 576.972656 312.113281 C 576.191406 311.671875 575.617188 311.164062 574.96875 310.546875 C 574 309.640625 573.023438 308.773438 571.988281 307.941406 C 571.058594 307.1875 570.15625 306.417969 569.269531 305.609375 C 568.40625 304.820312 567.527344 304.066406 566.617188 303.328125 C 565.28125 302.246094 563.976562 301.121094 562.679688 299.992188 C 561.621094 299.070312 560.558594 298.15625 559.488281 297.253906 C 558.316406 296.265625 557.152344 295.269531 555.988281 294.273438 C 554.683594 293.148438 553.371094 292.035156 552.058594 290.921875 C 551.007812 290.035156 549.964844 289.140625 548.925781 288.246094 C 547.84375 287.3125 546.75 286.390625 545.636719 285.492188 C 544.496094 284.566406 543.40625 283.59375 542.320312 282.605469 C 541.667969 282.019531 540.996094 281.464844 540.316406 280.914062 C 538.976562 279.828125 537.675781 278.707031 536.378906 277.574219 C 535.320312 276.652344 534.257812 275.742188 533.1875 274.835938 C 531.40625 273.332031 529.636719 271.8125 527.863281 270.292969 C 527.777344 284.828125 527.691406 299.363281 527.605469 314.339844 C 523.910156 314.339844 520.214844 314.339844 516.40625 314.339844 C 516.40625 291.71875 516.40625 269.097656 516.40625 245.792969 Z M 516.40625 245.792969" style="stroke:none;fill-rule:nonzero;fill:rgb(100%,100%,100%);fill-opacity:1;"/>
<path d="M 715.363281 245.792969 C 716.160156 246.144531 716.675781 246.527344 717.261719 247.164062 C 717.5 247.421875 717.5 247.421875 717.742188 247.683594 C 717.90625 247.863281 718.074219 248.046875 718.246094 248.234375 C 718.417969 248.421875 718.59375 248.609375 718.773438 248.804688 C 719.285156 249.363281 719.800781 249.921875 720.3125 250.484375 C 720.574219 250.765625 720.835938 251.050781 721.097656 251.335938 C 721.558594 251.839844 722.019531 252.34375 722.480469 252.847656 C 723.230469 253.667969 723.984375 254.488281 724.738281 255.304688 C 726.101562 256.78125 727.457031 258.257812 728.8125 259.738281 C 729.40625 260.390625 730.003906 261.039062 730.597656 261.691406 C 730.835938 261.953125 731.078125 262.210938 731.316406 262.472656 C 731.492188 262.667969 731.492188 262.667969 731.671875 262.863281 C 732.03125 263.253906 732.390625 263.644531 732.746094 264.035156 C 732.925781 264.230469 732.925781 264.230469 733.105469 264.425781 C 733.34375 264.6875 733.582031 264.949219 733.820312 265.207031 C 734.421875 265.867188 735.027344 266.523438 735.628906 267.183594 C 736.730469 268.382812 737.828125 269.585938 738.914062 270.796875 C 740.078125 272.089844 741.253906 273.367188 742.433594 274.644531 C 744.050781 276.394531 745.660156 278.148438 747.25 279.917969 C 748.15625 280.933594 749.078125 281.933594 750 282.933594 C 751.113281 284.140625 752.21875 285.355469 753.316406 286.578125 C 754.457031 287.847656 755.617188 289.105469 756.769531 290.363281 C 758.316406 292.042969 759.851562 293.730469 761.375 295.429688 C 762.050781 296.175781 762.730469 296.917969 763.410156 297.660156 C 764.476562 298.820312 765.535156 299.988281 766.585938 301.164062 C 767.257812 301.910156 767.9375 302.652344 768.621094 303.394531 C 769.683594 304.554688 770.742188 305.722656 771.792969 306.898438 C 772.585938 307.777344 773.390625 308.652344 774.191406 309.523438 C 775.183594 310.605469 776.164062 311.695312 777.140625 312.789062 C 777.460938 313.140625 777.789062 313.484375 778.125 313.820312 C 778.125 314.078125 778.125 314.335938 778.125 314.601562 C 776.1875 314.652344 774.25 314.6875 772.3125 314.710938 C 771.410156 314.722656 770.511719 314.734375 769.613281 314.757812 C 768.574219 314.785156 767.539062 314.796875 766.503906 314.804688 C 766.019531 314.820312 766.019531 314.820312 765.53125 314.839844 C 763.335938 314.839844 763.335938 314.839844 762.429688 314.15625 C 761.96875 313.632812 761.585938 313.097656 761.199219 312.515625 C 760.910156 312.195312 760.621094 311.878906 760.324219 311.566406 C 760.179688 311.414062 760.035156 311.261719 759.886719 311.101562 C 759.738281 310.945312 759.59375 310.789062 759.441406 310.628906 C 757.449219 308.5 755.476562 306.363281 753.53125 304.191406 C 752.371094 302.898438 751.191406 301.621094 750.011719 300.34375 C 748.90625 299.148438 747.808594 297.945312 746.707031 296.742188 C 746.113281 296.09375 745.515625 295.441406 744.921875 294.792969 C 744.683594 294.53125 744.445312 294.273438 744.207031 294.011719 C 744.085938 293.882812 743.96875 293.753906 743.847656 293.621094 C 743.488281 293.230469 743.132812 292.839844 742.773438 292.445312 C 742.65625 292.316406 742.535156 292.1875 742.414062 292.054688 C 742.175781 291.796875 741.9375 291.535156 741.699219 291.277344 C 741.097656 290.617188 740.496094 289.957031 739.890625 289.300781 C 738.789062 288.101562 737.691406 286.898438 736.605469 285.6875 C 735.445312 284.390625 734.265625 283.117188 733.085938 281.839844 C 731.46875 280.089844 729.859375 278.335938 728.273438 276.5625 C 727.109375 275.269531 725.933594 273.992188 724.753906 272.714844 C 722.941406 270.757812 721.144531 268.785156 719.363281 266.800781 C 718.210938 265.523438 717.046875 264.257812 715.886719 262.992188 C 715.074219 263.351562 714.550781 263.753906 713.953125 264.40625 C 713.785156 264.582031 713.621094 264.757812 713.453125 264.941406 C 713.285156 265.125 713.113281 265.3125 712.9375 265.503906 C 712.773438 265.683594 712.605469 265.859375 712.433594 266.046875 C 711.613281 266.933594 710.808594 267.828125 710.015625 268.742188 C 709.128906 269.757812 708.214844 270.746094 707.292969 271.726562 C 705.902344 273.203125 705.902344 273.203125 704.558594 274.722656 C 703.519531 275.929688 702.421875 277.082031 701.332031 278.246094 C 700.570312 279.058594 699.816406 279.871094 699.089844 280.71875 C 698.207031 281.746094 697.28125 282.726562 696.355469 283.714844 C 695.277344 284.867188 694.210938 286.019531 693.183594 287.214844 C 692.140625 288.402344 691.058594 289.550781 689.984375 290.707031 C 688.5 292.316406 687.023438 293.929688 685.5625 295.558594 C 684.523438 296.71875 683.46875 297.863281 682.414062 299.003906 C 681.382812 300.117188 680.367188 301.242188 679.359375 302.371094 C 679.042969 302.71875 678.71875 303.0625 678.386719 303.394531 C 678.847656 303.390625 678.847656 303.390625 679.316406 303.386719 C 686.632812 303.320312 693.949219 303.28125 701.261719 303.269531 C 702.164062 303.265625 703.066406 303.265625 703.96875 303.261719 C 704.148438 303.261719 704.328125 303.261719 704.511719 303.261719 C 707.414062 303.253906 710.3125 303.230469 713.214844 303.203125 C 716.195312 303.175781 719.175781 303.164062 722.15625 303.167969 C 723.828125 303.167969 725.5 303.164062 727.171875 303.136719 C 728.75 303.113281 730.324219 303.113281 731.902344 303.125 C 732.476562 303.128906 733.054688 303.121094 733.628906 303.105469 C 738.1875 303 738.1875 303 740.054688 304.628906 C 740.976562 305.546875 741.792969 306.53125 742.574219 307.570312 C 743.082031 308.234375 743.632812 308.839844 744.207031 309.453125 C 744.464844 309.746094 744.464844 309.746094 744.730469 310.046875 C 745.195312 310.5625 745.667969 311.074219 746.148438 311.585938 C 746.292969 311.738281 746.4375 311.894531 746.585938 312.050781 C 746.871094 312.355469 747.15625 312.660156 747.445312 312.964844 C 748.4375 314.023438 748.4375 314.023438 748.4375 314.601562 C 716.984375 314.601562 685.53125 314.601562 653.125 314.601562 C 653.410156 313.464844 653.632812 313.230469 654.460938 312.453125 C 655.199219 311.734375 655.921875 311.019531 656.59375 310.238281 C 657.390625 309.304688 658.214844 308.398438 659.050781 307.5 C 659.25 307.28125 659.25 307.28125 659.457031 307.0625 C 659.726562 306.765625 660 306.472656 660.273438 306.175781 C 661.757812 304.570312 663.238281 302.957031 664.695312 301.324219 C 665.859375 300.03125 667.035156 298.753906 668.214844 297.476562 C 669.832031 295.730469 671.441406 293.976562 673.03125 292.203125 C 674.191406 290.910156 675.371094 289.632812 676.550781 288.355469 C 678.164062 286.605469 679.773438 284.851562 681.363281 283.082031 C 682.523438 281.785156 683.703125 280.507812 684.882812 279.234375 C 686.5 277.484375 688.109375 275.730469 689.695312 273.957031 C 690.738281 272.796875 691.792969 271.648438 692.855469 270.503906 C 693.636719 269.65625 694.414062 268.804688 695.183594 267.945312 C 696.335938 266.65625 697.511719 265.386719 698.683594 264.113281 C 700.300781 262.367188 701.910156 260.613281 703.5 258.839844 C 704.660156 257.546875 705.839844 256.269531 707.019531 254.992188 C 709.035156 252.808594 711.035156 250.613281 713.019531 248.398438 C 713.460938 247.910156 713.898438 247.421875 714.339844 246.929688 C 714.535156 246.714844 714.730469 246.496094 714.933594 246.269531 C 715.078125 246.113281 715.21875 245.953125 715.363281 245.792969 Z M 715.363281 245.792969" style="stroke:none;fill-rule:nonzero;fill:rgb(100%,100%,100%);fill-opacity:1;"/>
<path d="M 134.894531 245.792969 C 135.691406 246.144531 136.207031 246.527344 136.792969 247.164062 C 137.03125 247.421875 137.03125 247.421875 137.273438 247.683594 C 137.4375 247.863281 137.605469 248.046875 137.777344 248.234375 C 137.949219 248.421875 138.125 248.609375 138.304688 248.804688 C 138.816406 249.363281 139.332031 249.921875 139.84375 250.484375 C 140.105469 250.765625 140.367188 251.050781 140.628906 251.335938 C 141.089844 251.839844 141.550781 252.34375 142.011719 252.847656 C 142.761719 253.667969 143.515625 254.488281 144.269531 255.304688 C 145.632812 256.78125 146.988281 258.257812 148.34375 259.738281 C 148.9375 260.390625 149.535156 261.039062 150.128906 261.691406 C 150.367188 261.953125 150.609375 262.210938 150.847656 262.472656 C 151.023438 262.667969 151.023438 262.667969 151.203125 262.863281 C 151.5625 263.253906 151.921875 263.644531 152.277344 264.035156 C 152.457031 264.230469 152.457031 264.230469 152.636719 264.425781 C 152.875 264.6875 153.113281 264.949219 153.351562 265.207031 C 153.953125 265.867188 154.558594 266.523438 155.160156 267.183594 C 156.261719 268.382812 157.359375 269.585938 158.445312 270.796875 C 159.609375 272.089844 160.785156 273.367188 161.964844 274.644531 C 163.582031 276.394531 165.191406 278.148438 166.78125 279.917969 C 167.6875 280.933594 168.609375 281.933594 169.53125 282.933594 C 170.644531 284.140625 171.75 285.355469 172.847656 286.578125 C 173.988281 287.847656 175.148438 289.105469 176.300781 290.363281 C 177.847656 292.042969 179.382812 293.730469 180.90625 295.429688 C 181.582031 296.175781 182.261719 296.917969 182.941406 297.660156 C 184.007812 298.820312 185.066406 299.988281 186.117188 301.164062 C 186.789062 301.910156 187.46875 302.652344 188.152344 303.394531 C 189.214844 304.554688 190.273438 305.722656 191.324219 306.898438 C 192.117188 307.777344 192.921875 308.652344 193.722656 309.523438 C 194.714844 310.605469 195.695312 311.695312 196.671875 312.789062 C 196.992188 313.140625 197.320312 313.484375 197.65625 313.820312 C 197.65625 314.078125 197.65625 314.335938 197.65625 314.601562 C 195.71875 314.652344 193.78125 314.6875 191.84375 314.710938 C 190.941406 314.722656 190.042969 314.734375 189.144531 314.757812 C 188.105469 314.785156 187.070312 314.796875 186.035156 314.804688 C 185.550781 314.820312 185.550781 314.820312 185.0625 314.839844 C 182.867188 314.839844 182.867188 314.839844 181.960938 314.15625 C 181.5 313.632812 181.117188 313.097656 180.730469 312.515625 C 180.441406 312.195312 180.152344 311.878906 179.855469 311.566406 C 179.710938 311.414062 179.566406 311.261719 179.417969 311.101562 C 179.269531 310.945312 179.125 310.789062 178.972656 310.628906 C 176.980469 308.5 175.007812 306.363281 173.0625 304.191406 C 171.902344 302.898438 170.722656 301.621094 169.542969 300.34375 C 168.4375 299.148438 167.339844 297.945312 166.238281 296.742188 C 165.644531 296.09375 165.046875 295.441406 164.453125 294.792969 C 164.214844 294.53125 163.976562 294.273438 163.738281 294.011719 C 163.617188 293.882812 163.5 293.753906 163.378906 293.621094 C 163.019531 293.230469 162.664062 292.839844 162.304688 292.445312 C 162.1875 292.316406 162.066406 292.1875 161.945312 292.054688 C 161.707031 291.796875 161.46875 291.535156 161.230469 291.277344 C 160.628906 290.617188 160.027344 289.957031 159.421875 289.300781 C 158.320312 288.101562 157.222656 286.898438 156.136719 285.6875 C 154.976562 284.390625 153.796875 283.117188 152.617188 281.839844 C 151 280.089844 149.390625 278.335938 147.804688 276.5625 C 146.640625 275.269531 145.464844 273.992188 144.285156 272.714844 C 142.472656 270.757812 140.675781 268.785156 138.894531 266.800781 C 137.742188 265.523438 136.578125 264.257812 135.417969 262.992188 C 134.605469 263.351562 134.082031 263.753906 133.484375 264.40625 C 133.316406 264.582031 133.152344 264.757812 132.984375 264.941406 C 132.816406 265.125 132.644531 265.3125 132.46875 265.503906 C 132.304688 265.683594 132.136719 265.859375 131.964844 266.046875 C 131.144531 266.933594 130.339844 267.828125 129.546875 268.742188 C 128.660156 269.757812 127.746094 270.746094 126.824219 271.726562 C 125.433594 273.203125 125.433594 273.203125 124.089844 274.722656 C 123.050781 275.929688 121.953125 277.082031 120.863281 278.246094 C 120.101562 279.058594 119.347656 279.871094 118.621094 280.71875 C 117.738281 281.746094 116.8125 282.726562 115.886719 283.714844 C 114.808594 284.867188 113.742188 286.019531 112.714844 287.214844 C 111.671875 288.402344 110.589844 289.550781 109.515625 290.707031 C 108.03125 292.316406 106.554688 293.929688 105.09375 295.558594 C 104.054688 296.71875 103 297.863281 101.945312 299.003906 C 100.914062 300.117188 99.898438 301.242188 98.890625 302.371094 C 98.574219 302.71875 98.25 303.0625 97.917969 303.394531 C 98.378906 303.390625 98.378906 303.390625 98.847656 303.386719 C 106.164062 303.320312 113.480469 303.28125 120.792969 303.269531 C 121.695312 303.265625 122.597656 303.265625 123.5 303.261719 C 123.679688 303.261719 123.859375 303.261719 124.042969 303.261719 C 126.945312 303.253906 129.84375 303.230469 132.746094 303.203125 C 135.726562 303.175781 138.707031 303.164062 141.6875 303.167969 C 143.359375 303.167969 145.03125 303.164062 146.703125 303.136719 C 148.28125 303.113281 149.855469 303.113281 151.433594 303.125 C 152.007812 303.128906 152.585938 303.121094 153.160156 303.105469 C 157.71875 303 157.71875 303 159.585938 304.628906 C 160.507812 305.546875 161.324219 306.53125 162.105469 307.570312 C 162.613281 308.234375 163.164062 308.839844 163.738281 309.453125 C 163.996094 309.746094 163.996094 309.746094 164.261719 310.046875 C 164.726562 310.5625 165.199219 311.074219 165.679688 311.585938 C 165.824219 311.738281 165.96875 311.894531 166.117188 312.050781 C 166.402344 312.355469 166.6875 312.660156 166.976562 312.964844 C 167.96875 314.023438 167.96875 314.023438 167.96875 314.601562 C 136.515625 314.601562 105.0625 314.601562 72.65625 314.601562 C 72.941406 313.464844 73.164062 313.230469 73.992188 312.453125 C 74.730469 311.734375 75.453125 311.019531 76.125 310.238281 C 76.921875 309.304688 77.746094 308.398438 78.582031 307.5 C 78.78125 307.28125 78.78125 307.28125 78.988281 307.0625 C 79.257812 306.765625 79.53125 306.472656 79.804688 306.175781 C 81.289062 304.570312 82.769531 302.957031 84.226562 301.324219 C 85.390625 300.03125 86.566406 298.753906 87.746094 297.476562 C 89.363281 295.730469 90.972656 293.976562 92.5625 292.203125 C 93.722656 290.910156 94.902344 289.632812 96.082031 288.355469 C 97.695312 286.605469 99.304688 284.851562 100.894531 283.082031 C 102.054688 281.785156 103.234375 280.507812 104.414062 279.234375 C 106.03125 277.484375 107.640625 275.730469 109.226562 273.957031 C 110.269531 272.796875 111.324219 271.648438 112.386719 270.503906 C 113.167969 269.65625 113.945312 268.804688 114.714844 267.945312 C 115.867188 266.65625 117.042969 265.386719 118.214844 264.113281 C 119.832031 262.367188 121.441406 260.613281 123.03125 258.839844 C 124.191406 257.546875 125.371094 256.269531 126.550781 254.992188 C 128.566406 252.808594 130.566406 250.613281 132.550781 248.398438 C 132.992188 247.910156 133.429688 247.421875 133.871094 246.929688 C 134.066406 246.714844 134.261719 246.496094 134.464844 246.269531 C 134.609375 246.113281 134.75 245.953125 134.894531 245.792969 Z M 134.894531 245.792969" style="stroke:none;fill-rule:nonzero;fill:rgb(100%,100%,100%);fill-opacity:1;"/>
<path d="M 348.4375 245.792969 C 388.65625 245.792969 428.875 245.792969 470.3125 245.792969 C 470.3125 249.402344 470.3125 253.015625 470.3125 256.738281 C 452.007812 256.738281 433.703125 256.738281 414.84375 256.738281 C 414.84375 275.746094 414.84375 294.757812 414.84375 314.339844 C 411.148438 314.339844 407.453125 314.339844 403.644531 314.339844 C 403.644531 295.332031 403.644531 276.324219 403.644531 256.738281 C 385.425781 256.738281 367.207031 256.738281 348.4375 256.738281 C 348.4375 253.125 348.4375 249.511719 348.4375 245.792969 Z M 348.4375 245.792969" style="stroke:none;fill-rule:nonzero;fill:rgb(100%,100%,100%);fill-opacity:1;"/>
<path d="M 485.675781 245.792969 C 489.457031 245.792969 493.238281 245.792969 497.136719 245.792969 C 497.136719 268.414062 497.136719 291.035156 497.136719 314.339844 C 493.355469 314.339844 489.574219 314.339844 485.675781 314.339844 C 485.675781 291.71875 485.675781 269.097656 485.675781 245.792969 Z M 485.675781 245.792969" style="stroke:none;fill-rule:nonzero;fill:rgb(100%,100%,100%);fill-opacity:1;"/>
</g>
</svg>